<?xml version="1.0" encoding="UTF-8" standalone="no"?>
<!-- Created with Inkscape (http://www.inkscape.org/) -->

<svg
   xmlns:dc="http://purl.org/dc/elements/1.1/"
   xmlns:cc="http://creativecommons.org/ns#"
   xmlns:rdf="http://www.w3.org/1999/02/22-rdf-syntax-ns#"
   xmlns:svg="http://www.w3.org/2000/svg"
   xmlns="http://www.w3.org/2000/svg"
   xmlns:sodipodi="http://sodipodi.sourceforge.net/DTD/sodipodi-0.dtd"
   xmlns:inkscape="http://www.inkscape.org/namespaces/inkscape"
   width="210mm"
   height="297mm"
   viewBox="0 0 210 297"
   version="1.1"
   id="svg3631"
   inkscape:version="0.92.4 (5da689c313, 2019-01-14)"
   sodipodi:docname="heart arrow.svg">
  <defs
     id="defs3625">
    <clipPath
       clipPathUnits="userSpaceOnUse"
       id="clipPath18">
      <path
         d="M 0,600.949 H 847.559 V 0 H 0 Z"
         id="path16"
         inkscape:connector-curvature="0" />
    </clipPath>
    <linearGradient
       id="a"
       x1="104.73"
       x2="494.51999"
       y1="335.72"
       y2="895.84003"
       gradientUnits="userSpaceOnUse">
      <stop
         stop-color="#e00"
         offset="0"
         id="stop2" />
      <stop
         stop-color="#9a0000"
         offset="1"
         id="stop4" />
    </linearGradient>
  </defs>
  <sodipodi:namedview
     id="base"
     pagecolor="#ffffff"
     bordercolor="#666666"
     borderopacity="1.0"
     inkscape:pageopacity="0.0"
     inkscape:pageshadow="2"
     inkscape:zoom="0.24196355"
     inkscape:cx="991.38585"
     inkscape:cy="1133.6867"
     inkscape:document-units="mm"
     inkscape:current-layer="g2464"
     showgrid="false"
     showguides="true"
     inkscape:guide-bbox="true"
     inkscape:window-width="1920"
     inkscape:window-height="1001"
     inkscape:window-x="-9"
     inkscape:window-y="-9"
     inkscape:window-maximized="1"
     inkscape:snap-global="false">
    <sodipodi:guide
       position="72.922013,252.88982"
       orientation="0,1"
       id="guide4178"
       inkscape:locked="false" />
    <sodipodi:guide
       position="99.099147,43.94019"
       orientation="0,1"
       id="guide4180"
       inkscape:locked="false" />
  </sodipodi:namedview>
  <metadata
     id="metadata3628">
    <rdf:RDF>
      <cc:Work
         rdf:about="">
        <dc:format>image/svg+xml</dc:format>
        <dc:type
           rdf:resource="http://purl.org/dc/dcmitype/StillImage" />
        <dc:title></dc:title>
      </cc:Work>
    </rdf:RDF>
  </metadata>
  <g
     inkscape:label="Layer 1"
     inkscape:groupmode="layer"
     id="layer1">
    <g
       id="g11993"
       transform="translate(0.01320793,-14.655723)">
      <g
         id="g837"
         transform="translate(-250.87266,-61.951477)">
        <g
           id="g2464"
           transform="translate(-13.561611,18.317741)">
          <g
             id="g2698"
             transform="translate(-118.16524,11.253832)" />
          <path
             style="fill:#000000;stroke-width:0.13531263"
             d="m 282.67057,193.66582 c -0.22224,-0.005 -0.58705,0.0992 -0.95471,0.29401 -0.71026,0.37617 -0.99518,0.85674 -0.99518,1.68067 v 0.64996 l 3.67022,3.67849 c 2.01823,2.02313 3.64393,3.75326 3.61323,3.84531 -0.0419,0.12578 -0.64308,0.16192 -2.41736,0.14368 -3.37504,-0.0347 -4.2078,0.19305 -4.94043,1.35364 -0.26398,0.4182 -0.33117,0.70359 -0.33117,1.41224 0,0.92673 0.0406,1.01925 0.78375,1.77155 0.72239,0.73131 1.42687,0.86383 4.58532,0.86383 1.71766,0 2.74934,0.0503 2.74934,0.13377 0,0.0735 -0.20449,0.33194 -0.45507,0.57483 -0.25058,0.24288 -1.98643,2.00338 -3.85684,3.91222 l -3.40019,3.47035 0.005,0.65657 c 0.005,0.67732 0.13808,1.00604 0.60454,1.49815 0.2086,0.22005 0.44057,0.28764 1.01418,0.29402 l 0.74493,0.01 5.32117,-5.27495 5.32202,-5.27491 h 4.18391 c 2.3012,0 4.18391,0.0499 4.18391,0.11156 0,0.0617 -1.64913,1.75175 -3.66444,3.7553 -2.01532,2.00355 -3.74423,3.79599 -3.84284,3.98323 -0.17836,0.33862 -0.26445,0.88667 -0.22547,1.43537 0.0112,0.15806 0.22196,0.50815 0.46911,0.778 0.41432,0.45238 0.5092,0.49056 1.20992,0.49056 h 0.75983 l 4.96025,-4.90491 c 2.72811,-2.69783 5.04707,-5.07276 5.15351,-5.27742 l 0.19409,-0.37244 h 4.32595 c 2.94498,0 4.32679,0.0457 4.32679,0.14288 0,0.0785 -1.735,1.86714 -3.85603,3.97413 l -3.85687,3.83044 v 0.83662 c 0,0.76596 0.0382,0.8766 0.45342,1.30406 0.40216,0.41416 0.53337,0.46662 1.1562,0.46662 0.38636,0 0.80037,-0.0762 0.92089,-0.16929 0.30559,-0.23596 1.38238,-1.30712 6.18835,-6.15944 l 4.18472,-4.22603 h 58.02489 c 31.91352,0 58.02487,0.0471 58.02487,0.10404 0,0.0569 -0.1221,0.43601 -0.27087,0.84321 -0.14879,0.4072 -0.26965,0.95501 -0.26839,1.21655 0.005,0.53279 0.29329,1.45494 0.6326,2.00524 0.41359,0.67031 1.45624,1.66922 2.07133,1.98378 2.00727,1.02651 4.3169,0.98054 6.52119,-0.12882 1.87183,-0.94211 5.45609,-3.30094 9.82799,-6.46748 1.51243,-1.0956 2.80682,-1.99206 2.87571,-1.99206 0.27485,0 0.0892,-0.35685 -0.35183,-0.67639 -0.25671,-0.18605 -1.54881,-1.12866 -2.87078,-2.09442 -3.66706,-2.67906 -7.18937,-5.01749 -9.11525,-6.05127 -1.52371,-0.81792 -2.16923,-0.97844 -3.90973,-0.97205 -1.49419,0.005 -1.59792,0.0256 -2.59412,0.48894 -1.46893,0.68328 -2.46712,1.7854 -2.89552,3.19698 -0.26186,0.86299 -0.24191,1.36918 0.09,2.2563 0.15614,0.41725 0.25718,0.78502 0.22458,0.81761 -0.0326,0.0326 -26.23639,0.0598 -58.23051,0.0594 l -58.17103,-8.3e-4 -4.93964,-4.92225 c -2.71704,-2.70746 -5.14792,-5.02197 -5.40124,-5.14276 -0.49098,-0.23431 -0.90897,-0.28438 -0.9828,-0.1181 -0.0248,0.0558 -0.22767,0.1937 -0.45093,0.30639 -0.57698,0.29118 -0.92685,1.06579 -0.81018,1.79218 0.0852,0.52996 0.36771,0.85116 3.6983,4.19214 1.98372,1.98999 3.60743,3.68144 3.60743,3.75946 0,0.0957 -1.35967,0.14304 -4.18476,0.14624 l -4.18474,0.005 -4.94948,-4.92558 c -2.7219,-2.70926 -5.1142,-5.02797 -5.31622,-5.15186 -0.40422,-0.24789 -1.053,-0.30333 -1.053,-0.09 0,0.0745 -0.0797,0.13553 -0.17674,0.13553 -0.26475,0 -0.99511,0.82946 -1.09101,1.23883 -0.21531,0.91887 -0.0855,1.08956 3.74787,4.94867 2.0129,2.0264 3.6257,3.71884 3.58349,3.76106 -0.0422,0.0422 -1.92608,0.0889 -4.1864,0.10484 l -4.10956,0.0272 -5.03791,-5.04036 c -2.77069,-2.77222 -5.13037,-5.04035 -5.24352,-5.04035 -0.11331,0 -0.20564,-0.0611 -0.20564,-0.13553 0,-0.0865 -0.0821,-0.12897 -0.21558,-0.13217 z"
             id="path4297-68"
             inkscape:connector-curvature="0" />
        </g>
      </g>
    </g>
  </g>
</svg>
